<?xml version="1.0" encoding="UTF-8"?>
<svg id="_レイヤー_1" xmlns="http://www.w3.org/2000/svg" version="1.1" viewBox="0 0 441.07 276.2">
  <!-- Generator: Adobe Illustrator 29.5.1, SVG Export Plug-In . SVG Version: 2.1.0 Build 141)  -->
  <defs>
    <style>
      .st0 {
        fill: #0066b2;
      }
    </style>
  </defs>
  <g id="_グループ_1">
    <g id="layer1">
      <path id="path4642" class="st0" d="M302.95,0C265.44,0,260.74.24,246.01.85c-14.7.67-24.72,2.97-33.5,6.39-18.56,7.17-33.23,21.84-40.4,40.4-3.42,8.79-5.76,18.85-6.43,33.55-.67,14.73-.85,19.43-.85,56.94s.17,42.21.85,56.94c.67,14.7,3.01,24.72,6.43,33.51,7.17,18.56,21.84,33.23,40.4,40.4,8.78,3.41,18.8,5.76,33.5,6.43,14.73.67,19.43.8,56.94.8s42.21-.22,56.94-.8c14.7-.67,24.76-3.02,33.55-6.43,18.54-7.19,33.19-21.85,40.36-40.4,3.42-8.79,5.76-18.8,6.43-33.51.67-14.73.85-19.43.85-56.94s-.17-42.21-.85-56.94c-.67-14.7-3.02-24.76-6.43-33.55-7.17-18.55-21.82-33.21-40.36-40.4-8.78-3.42-18.85-5.72-33.55-6.39C345.16.17,340.46,0,302.95,0h0ZM302.95,24.87c36.88,0,41.24.22,55.8.8,13.46.61,20.81,2.89,25.68,4.78,12.03,4.64,21.54,14.15,26.18,26.18,1.89,4.87,4.17,12.21,4.78,25.68.66,14.56.8,18.92.8,55.8s-.15,41.24-.8,55.8c-.61,13.47-2.89,20.77-4.78,25.64-4.62,12.05-14.14,21.58-26.19,26.23-4.87,1.88-12.21,4.13-25.68,4.74-14.56.67-18.92.8-55.8.8s-41.24-.22-55.8-.8c-13.46-.61-20.77-2.85-25.64-4.74-12.07-4.62-21.6-14.16-26.23-26.23-1.89-4.87-4.12-12.17-4.74-25.64-.66-14.56-.8-18.92-.8-55.8s.15-41.24.8-55.8c.62-13.46,2.85-20.81,4.74-25.68,4.64-12.05,14.17-21.56,26.23-26.19,4.87-1.88,12.17-4.16,25.64-4.78,14.56-.67,18.92-.8,55.8-.8h.01ZM376.69,47.8c-9.16,0-16.58,7.42-16.58,16.58s7.42,16.58,16.58,16.58,16.58-7.42,16.58-16.58-7.43-16.58-16.58-16.58h0ZM302.95,67.18c-39.17.01-70.91,31.78-70.9,70.95,0,39.17,31.78,70.91,70.95,70.9,39.15,0,70.88-31.75,70.9-70.9.01-39.17-31.74-70.93-70.91-70.94h-.04,0ZM302.95,92.09c25.42,0,46.03,20.61,46.03,46.03s-20.61,46.03-46.03,46.03-46.03-20.61-46.03-46.03,20.6-46.02,46.01-46.03h.02Z"/>
    </g>
    <path id="Icon_ion-ios-arrow-forward" class="st0" d="M46.04,151.26L2.42,107.67c-3.21-3.19-3.23-8.38-.04-11.6,0-.01.02-.02.04-.04,3.23-3.19,8.43-3.19,11.67,0l49.42,49.38c3.1,3.11,3.21,8.12.24,11.36l-49.62,49.72c-3.21,3.22-8.43,3.23-11.65.02-3.22-3.21-3.23-8.43-.02-11.65h0l43.58-43.62v.02Z"/>
  </g>
</svg>