<svg xmlns="http://www.w3.org/2000/svg" xmlns:xlink="http://www.w3.org/1999/xlink" width="664.74" height="126.686" viewBox="0 0 664.74 126.686">
  <defs>
    <clipPath id="clip-path">
      <rect width="664.74" height="126.686" fill="none"/>
    </clipPath>
  </defs>
  <g id="star-346" clip-path="url(#clip-path)">
    <g id="star-346-2" data-name="star-346" transform="translate(0.001 -5.766)">
      <path id="パス_1" data-name="パス 1" d="M70.433,8.293l17,34.443a4.535,4.535,0,0,0,3.413,2.479l38.011,5.523a4.532,4.532,0,0,1,2.512,7.73L103.861,85.277a4.533,4.533,0,0,0-1.3,4.012l6.492,37.856a4.531,4.531,0,0,1-6.575,4.777l-34-17.873a4.529,4.529,0,0,0-4.218,0l-34,17.873a4.531,4.531,0,0,1-6.575-4.777L30.18,89.289a4.533,4.533,0,0,0-1.3-4.012l-27.5-26.81a4.532,4.532,0,0,1,2.512-7.73L41.9,45.213a4.532,4.532,0,0,0,3.413-2.479l17-34.441A4.531,4.531,0,0,1,70.433,8.293Z" transform="translate(0)" fill="#ffdc00"/>
    </g>
    <g id="star-346-3" data-name="star-346" transform="translate(133.001 -5.766)">
      <path id="パス_1-2" data-name="パス 1" d="M70.433,8.293l17,34.443a4.535,4.535,0,0,0,3.413,2.479l38.011,5.523a4.532,4.532,0,0,1,2.512,7.73L103.861,85.277a4.533,4.533,0,0,0-1.3,4.012l6.492,37.856a4.531,4.531,0,0,1-6.575,4.777l-34-17.873a4.529,4.529,0,0,0-4.218,0l-34,17.873a4.531,4.531,0,0,1-6.575-4.777L30.18,89.289a4.533,4.533,0,0,0-1.3-4.012l-27.5-26.81a4.532,4.532,0,0,1,2.512-7.73L41.9,45.213a4.532,4.532,0,0,0,3.413-2.479l17-34.441A4.531,4.531,0,0,1,70.433,8.293Z" transform="translate(0)" fill="#ffdc00"/>
    </g>
    <g id="star-346-4" data-name="star-346" transform="translate(266.001 -5.766)">
      <path id="パス_1-3" data-name="パス 1" d="M70.433,8.293l17,34.443a4.535,4.535,0,0,0,3.413,2.479l38.011,5.523a4.532,4.532,0,0,1,2.512,7.73L103.861,85.277a4.533,4.533,0,0,0-1.3,4.012l6.492,37.856a4.531,4.531,0,0,1-6.575,4.777l-34-17.873a4.529,4.529,0,0,0-4.218,0l-34,17.873a4.531,4.531,0,0,1-6.575-4.777L30.18,89.289a4.533,4.533,0,0,0-1.3-4.012l-27.5-26.81a4.532,4.532,0,0,1,2.512-7.73L41.9,45.213a4.532,4.532,0,0,0,3.413-2.479l17-34.441A4.531,4.531,0,0,1,70.433,8.293Z" transform="translate(0)" fill="#ffdc00"/>
    </g>
    <g id="star-346-5" data-name="star-346" transform="translate(399.001 -5.766)">
      <path id="パス_1-4" data-name="パス 1" d="M70.433,8.293l17,34.443a4.535,4.535,0,0,0,3.413,2.479l38.011,5.523a4.532,4.532,0,0,1,2.512,7.73L103.861,85.277a4.533,4.533,0,0,0-1.3,4.012l6.492,37.856a4.531,4.531,0,0,1-6.575,4.777l-34-17.873a4.529,4.529,0,0,0-4.218,0l-34,17.873a4.531,4.531,0,0,1-6.575-4.777L30.18,89.289a4.533,4.533,0,0,0-1.3-4.012l-27.5-26.81a4.532,4.532,0,0,1,2.512-7.73L41.9,45.213a4.532,4.532,0,0,0,3.413-2.479l17-34.441A4.531,4.531,0,0,1,70.433,8.293Z" transform="translate(0)" fill="#ffdc00"/>
    </g>
    <g id="star-346-6" data-name="star-346" transform="translate(532.001 -5.766)">
      <path id="パス_1-5" data-name="パス 1" d="M70.433,8.293l17,34.443a4.535,4.535,0,0,0,3.413,2.479l38.011,5.523a4.532,4.532,0,0,1,2.512,7.73L103.861,85.277a4.533,4.533,0,0,0-1.3,4.012l6.492,37.856a4.531,4.531,0,0,1-6.575,4.777l-34-17.873a4.529,4.529,0,0,0-4.218,0l-34,17.873a4.531,4.531,0,0,1-6.575-4.777L30.18,89.289a4.533,4.533,0,0,0-1.3-4.012l-27.5-26.81a4.532,4.532,0,0,1,2.512-7.73L41.9,45.213a4.532,4.532,0,0,0,3.413-2.479l17-34.441A4.531,4.531,0,0,1,70.433,8.293Z" transform="translate(0)" fill="#ffdc00"/>
    </g>
  </g>
</svg>
